<svg xmlns="http://www.w3.org/2000/svg" xmlns:xlink="http://www.w3.org/1999/xlink" width="116.477" height="114.609" viewBox="0 0 116.477 114.609"><defs><linearGradient id="a" x1="0.5" x2="0.5" y2="1" gradientUnits="objectBoundingBox"><stop offset="0" stop-color="#fc5296"/><stop offset="1" stop-color="#f67062"/></linearGradient></defs><g transform="translate(0 -3.236)"><g transform="translate(0 3.236)"><path d="M89.155,147.378c2.712,3.9,5,5.72,7.205,5.72.831,0,2.877-.316,3.935-3.244.872-2.413,1.653-5.168,2.479-8.085,2.011-7.1,4.766-16.821,8.656-16.821h.276c1.675,0,3.227,1.546,4.746,4.728a77.69,77.69,0,0,1,4,12.159c.791,2.9,1.539,5.636,2.385,8.01,1.039,2.915,3.067,3.23,3.892,3.231,2.195,0,4.483-1.845,7.2-5.806a75.908,75.908,0,0,0,6.573-12.353c4.8-11.069,7.671-22.3,7.671-30.046a22.665,22.665,0,0,0-5.665-15.151,19.781,19.781,0,0,0-14.931-6.688c-4.536,0-9.335,2.648-12.84,4.581a29.561,29.561,0,0,1-3.17,1.61,29.087,29.087,0,0,1-3.157-1.606c-3.5-1.935-8.287-4.585-12.855-4.585a19.779,19.779,0,0,0-14.931,6.688,22.665,22.665,0,0,0-5.666,15.151c0,7.973,2.853,19.29,7.633,30.273A73.453,73.453,0,0,0,89.155,147.378Zm6.4-60.143c2.655,0,6.169,1.225,9.4,3.277.466.3,1.144.817,1.8,1.322.265.2.526.4.77.588a33.758,33.758,0,0,0,3.13,2.115,16.382,16.382,0,0,0,1.956,1.033,22.016,22.016,0,0,0,8.651,1.756,21.784,21.784,0,0,0,5.2-.481c1.091-.26,3.647-.955,3.6-1.332-.044-.333-2.858-.168-3.808-.25a46.827,46.827,0,0,1-8.532-1.377c-1.217-.323-2.866-.973-2.94-1.333-.056-.272,1.121-1.026,2.017-1.576,3.138-1.925,7.332-3.743,10.786-3.743,10.261,0,16.393,8.967,16.393,17.636,0,7.091-2.807,17.963-7.324,28.373a72.787,72.787,0,0,1-6.183,11.648c-1.913,2.788-3.035,4.034-3.524,3.883a.521.521,0,0,1-.265-.3c-.789-2.213-1.393-4.908-2.167-7.745a80.591,80.591,0,0,0-4.264-12.862c-2.288-4.791-5.081-7.12-8.539-7.12h-.276c-3.34,0-6.073,2.311-8.353,7.064a84.379,84.379,0,0,0-4.351,12.828c-.8,2.838-1.408,5.5-2.228,7.763a.81.81,0,0,1-.325.41c-.484.155-1.619-1.03-3.567-3.832a70.3,70.3,0,0,1-6.158-11.513c-4.493-10.324-7.284-21.281-7.284-28.6C79.164,96.2,85.3,87.235,95.558,87.235Z" transform="translate(-53.33 -60.005)" fill="url(#a)"/><path d="M125.8,43.408s-3.245.9-4.322,1.214c-.487.143-.523-.136-.523-.136a52.524,52.524,0,0,0-15.726-27A53.549,53.549,0,0,0,15.477,52.491a2.886,2.886,0,0,0,2.648,3.1c.078.006.155.009.231.009a2.886,2.886,0,0,0,2.873-2.657,47.777,47.777,0,0,1,94.175-6.91s.1.254-.116.321c-1.451.447-5.845,1.641-5.845,1.641-1.293.363-1.5,1.361-.47,2.216l11.033,9.131a1.581,1.581,0,0,0,2.676-.752l4.667-13.539C127.789,43.787,127.089,43.045,125.8,43.408Z" transform="translate(-11.005 -3.236)" fill="url(#a)"/><path d="M109.565,208.63a2.884,2.884,0,0,0-3.1,2.648,47.776,47.776,0,0,1-94.174,6.913s-.066-.3.156-.36c1.651-.475,5.595-1.571,5.595-1.571,1.293-.363,1.5-1.361.47-2.217l-11.033-9.13a1.581,1.581,0,0,0-2.676.751L.13,219.2c-.438,1.269.262,2.011,1.555,1.648,0,0,3.129-.883,4.762-1.337.2-.055.286.311.286.311a52.219,52.219,0,0,0,15.733,26.915,53.548,53.548,0,0,0,89.747-35.007A2.884,2.884,0,0,0,109.565,208.63Z" transform="translate(0 -146.38)" fill="url(#a)"/></g></g></svg>