<svg xmlns="http://www.w3.org/2000/svg" xmlns:xlink="http://www.w3.org/1999/xlink" width="100.764" height="114.152" viewBox="0 0 100.764 114.152"><defs><linearGradient id="a" x1="0.5" x2="0.5" y2="1" gradientUnits="objectBoundingBox"><stop offset="0" stop-color="#fc5296"/><stop offset="1" stop-color="#f67062"/></linearGradient></defs><path d="M91.088,8.953A31.951,31.951,0,0,0,50.382,5.917a31.883,31.883,0,1,0-33.867,53.9l.753.415H40.344V67.3H16.912v6.689H40.344v6.7H22.49v6.689H40.344v6.7H28.068v6.689H40.344v6.7h-6.7v6.689h33.47v-6.689h-6.7v-6.7H72.695V94.075H60.42v-6.7H78.273V80.688H60.42v-6.7H83.851V67.3H60.42V60.236H83.495l.754-.415A31.939,31.939,0,0,0,91.088,8.953Zm-37.357,98.51h-6.7v-6.7h6.7Zm0-13.388h-6.7v-6.7h6.7Zm0-13.388h-6.7v-6.7h6.7Zm0-13.389h-6.7V60.235h6.7ZM81.746,53.546H19.017A25.195,25.195,0,1,1,48.212,12.7l2.169,1.849L52.55,12.7a25.194,25.194,0,1,1,29.2,40.847Zm0,0" transform="translate(0 0.001)" fill="url(#a)"/></svg>