<svg xmlns="http://www.w3.org/2000/svg" xmlns:xlink="http://www.w3.org/1999/xlink" width="105.597" height="118.367" viewBox="0 0 105.597 118.367"><defs><linearGradient id="a" x1="0.5" x2="0.5" y2="1" gradientUnits="objectBoundingBox"><stop offset="0" stop-color="#fc5296"/><stop offset="1" stop-color="#f67062"/></linearGradient></defs><g transform="translate(-27.617 0)"><g transform="translate(108.151 10.864)"><g transform="translate(0)"><path d="M378.28,46.993a2.312,2.312,0,1,0,2.312,2.312A2.313,2.313,0,0,0,378.28,46.993Z" transform="translate(-375.968 -46.993)" fill="url(#a)"/></g></g><g transform="translate(27.617 0)"><g transform="translate(0 0)"><path d="M112.579,1.849C98.08-2.8,85.964,2.4,80.409,5.609,74.854,2.4,62.739-2.8,48.237,1.849c-19.2,6.16-28.209,34.2-12.81,56.831,7.3,10.716,8.27,18.981,9.3,27.732.755,6.406,1.536,13.03,4.8,20.774,2.193,5.206,5.293,11.162,9.879,11.161h.125c3.688-.087,6.66-3.745,9.636-11.861a95.477,95.477,0,0,0,3.426-13.739c1.691-8.5,3.439-17.283,7.833-17.314h.023c4.346,0,6.091,8.789,7.778,17.289a95.273,95.273,0,0,0,3.427,13.765c2.98,8.128,5.951,11.792,9.636,11.879h.125c4.577,0,7.681-5.965,9.878-11.18,3.116-7.4,3.933-14.008,4.722-20.4,1.112-9,2.161-17.495,9.393-28.133C140.986,35.736,131.462,7.9,112.579,1.849Zm9,54.207c-7.859,11.562-9.028,21.019-10.158,30.165-.785,6.357-1.527,12.361-4.395,19.17-3.4,8.077-5.375,8.351-5.624,8.351H101.4c-.089,0-2.216-.151-5.4-8.848a92.1,92.1,0,0,1-3.233-13.073C91.745,86.7,90.785,81.864,89.2,78.088c-2.024-4.831-4.967-7.279-8.747-7.279h-.064c-3.8.027-6.749,2.494-8.778,7.335-1.582,3.773-2.541,8.6-3.557,13.7a92.322,92.322,0,0,1-3.233,13.05c-3.182,8.678-5.314,8.828-5.4,8.83-.207,0-2.2-.186-5.634-8.332-3.007-7.141-3.716-13.154-4.466-19.521C48.27,76.953,47.183,67.73,39.25,56.079c-13.881-20.4-5.514-44.721,10.4-49.826C63.489,1.815,74.91,7.58,79.178,10.265a2.311,2.311,0,0,0,2.461,0c4.27-2.684,15.693-8.448,29.528-4.012C127.4,11.455,135.184,36.047,121.583,56.056Z" transform="translate(-27.617 0)" fill="url(#a)"/></g></g><g transform="translate(115.098 16.963)"><g transform="translate(0)"><path d="M413.2,80.344a25.034,25.034,0,0,0-2.958-5.962,2.312,2.312,0,1,0-3.819,2.605,20.423,20.423,0,0,1,2.406,4.862,28.374,28.374,0,0,1-1.649,21.406,2.312,2.312,0,1,0,4.161,2.016A33.022,33.022,0,0,0,413.2,80.344Z" transform="translate(-406.018 -73.372)" fill="url(#a)"/></g></g><g transform="translate(41.222 17.636)"><g transform="translate(0)"><path d="M117.249,90.273l-9.307-3.1-3.1-9.307a2.312,2.312,0,0,0-4.386,0l-3.1,9.307-9.307,3.1a2.312,2.312,0,0,0,0,4.387l9.307,3.1,3.1,9.307a2.312,2.312,0,0,0,4.386,0l3.1-9.307,9.307-3.1a2.312,2.312,0,0,0,0-4.387Zm-11.866,3.468a2.311,2.311,0,0,0-1.462,1.462l-1.275,3.824L101.373,95.2a2.311,2.311,0,0,0-1.462-1.462l-3.824-1.275,3.824-1.275a2.311,2.311,0,0,0,1.462-1.462l1.275-3.824,1.275,3.824a2.311,2.311,0,0,0,1.462,1.462l3.824,1.275Z" transform="translate(-86.464 -76.283)" fill="url(#a)"/></g></g></g></svg>